HIERARCHY
ROOT Hip
{
	OFFSET 0.000000 0.000000 0.000000 
	CHANNELS 6 Xposition Yposition Zposition Xrotation Yrotation Zrotation
	JOINT LowerSpine
	{
		OFFSET 0.000000 8.345300 -5.129200 
		CHANNELS 3 Xrotation Yrotation Zrotation
		JOINT MiddleSpine
		{
			OFFSET 10.856900 0.000000 0.000000 
			CHANNELS 3 Xrotation Yrotation Zrotation
			JOINT Chest
			{
				OFFSET 15.298400 0.000000 0.000000 
				CHANNELS 3 Xrotation Yrotation Zrotation
				JOINT Neck
				{
					OFFSET 25.661800 -0.598600 0.000000 
					CHANNELS 3 Xrotation Yrotation Zrotation
					JOINT Head
					{
						OFFSET 8.882900 0.000000 0.000000 
						CHANNELS 3 Xrotation Yrotation Zrotation
						End Site
						{
							OFFSET 19.739901 0.000000 0.000000 
						}
					}
				}
				JOINT RClavicle
				{
					OFFSET 23.687799 0.000000 3.158400 
					CHANNELS 3 Xrotation Yrotation Zrotation
					JOINT RShoulder
					{
						OFFSET -15.594500 -3.948000 0.987000 
						CHANNELS 3 Xrotation Yrotation Zrotation
						JOINT RForearm
						{
							OFFSET -31.337000 0.000000 0.197400 
							CHANNELS 3 Xrotation Yrotation Zrotation
							JOINT RHand
							{
								OFFSET -26.402100 0.000000 0.000000 
								CHANNELS 3 Xrotation Yrotation Zrotation
								End Site
								{
									OFFSET -15.791900 -0.987000 0.000000 
								}
							}
						}
					}
				}
				JOINT LClavicle
				{
					OFFSET 23.687799 0.000000 -3.158400 
					CHANNELS 3 Xrotation Yrotation Zrotation
					JOINT LShoulder
					{
						OFFSET -15.594500 -3.948000 -0.987000 
						CHANNELS 3 Xrotation Yrotation Zrotation
						JOINT LForearm
						{
							OFFSET -31.337000 0.000000 -0.197400 
							CHANNELS 3 Xrotation Yrotation Zrotation
							JOINT LHand
							{
								OFFSET -26.402100 0.000000 0.000000 
								CHANNELS 3 Xrotation Yrotation Zrotation
								End Site
								{
									OFFSET -15.791900 -0.987000 0.000000 
								}
							}
						}
					}
				}
			}
		}
	}
	JOINT RThigh
	{
		OFFSET -8.882900 0.448100 0.000000 
		CHANNELS 3 Xrotation Yrotation Zrotation
		JOINT RShin
		{
			OFFSET 43.131599 0.000000 -0.493500 
			CHANNELS 3 Xrotation Yrotation Zrotation
			JOINT RFoot
			{
				OFFSET 0.000000 -44.725601 -0.404700 
				CHANNELS 3 Xrotation Yrotation Zrotation
				JOINT RToe
				{
					OFFSET 0.000000 -3.933200 12.195300 
					CHANNELS 3 Xrotation Yrotation Zrotation
					End Site
					{
						OFFSET 6.772500 0.000000 0.000000 
					}
				}
			}
		}
	}
	JOINT LThigh
	{
		OFFSET 8.882900 0.448100 0.000000 
		CHANNELS 3 Xrotation Yrotation Zrotation
		JOINT LShin
		{
			OFFSET 43.131599 0.000000 0.493500 
			CHANNELS 3 Xrotation Yrotation Zrotation
			JOINT LFoot
			{
				OFFSET 0.000000 -44.725601 0.404700 
				CHANNELS 3 Xrotation Yrotation Zrotation
				JOINT LToe
				{
					OFFSET 0.000000 -3.933200 -12.195300 
					CHANNELS 3 Xrotation Yrotation Zrotation
					End Site
					{
						OFFSET 6.772500 0.000000 0.000000 
					}
				}
			}
		}
	}
}
MOTION
Frames: 11
Frame Time: 0.016949
14.019459 91.341698 -10.366537 -1.028425 5.268283 11.817390 -89.999992 -90.000000 0.000000 -0.680982 2.069934 0.483175 -2.352230 6.879494 1.714537 0.000000 0.000000 0.000000 0.000000 0.000000 0.000000 90.255875 1.261682 -107.363190 -73.474930 33.539013 -6.228086 1.384242 15.545818 -6.092306 0.000000 0.000000 0.000000 -90.051003 0.859954 -78.402519 -13.727200 -6.629391 72.002090 -0.834150 -10.478650 -5.967354 0.000000 0.000000 0.000000 80.813156 67.706169 174.921036 89.716599 29.555162 90.043892 -13.922914 4.186273 2.814861 175.346909 90.000000 0.000000 85.875275 75.734314 -172.252121 -89.984833 -1.691017 89.998680 3.295939 0.117012 -0.040494 180.750534 -90.000000 0.000000 
14.124977 91.334190 -10.287714 -1.194712 4.215330 12.240982 -89.999992 -90.000000 0.000000 -0.575841 2.200910 0.353280 -1.985564 7.322637 1.274748 0.000000 0.000000 0.000000 0.000000 0.000000 0.000000 90.277740 1.317397 -108.167526 -71.701027 29.806520 -7.128394 2.356733 24.111378 -6.389433 0.000000 0.000000 0.000000 -90.055557 0.886675 -78.038177 -13.582375 -6.844109 70.795166 -0.881528 -10.920792 -5.976939 0.000000 0.000000 0.000000 81.163361 67.220100 174.843872 89.715385 29.663549 90.044380 -13.973272 3.667163 2.461287 175.794479 90.000000 0.000000 85.610733 75.126747 -171.592529 -89.986153 -1.543604 89.998795 2.802592 0.842964 -0.401235 181.261963 -90.000000 0.000000 
14.092896 91.386475 -10.185489 -1.408329 3.425703 12.462973 -89.999992 -90.000000 0.000000 -0.485958 2.364075 0.215272 -1.666185 7.871901 0.808030 0.000000 0.000000 0.000000 0.000000 0.000000 0.000000 90.293800 1.357539 -108.748764 -71.181816 24.268772 -6.443214 4.236660 37.901653 -7.314734 0.000000 0.000000 0.000000 -90.059845 0.912027 -77.692535 -13.492596 -5.825494 69.333908 -1.061778 -12.583512 -6.018103 0.000000 0.000000 0.000000 81.525909 67.061363 175.025009 89.715889 29.619328 90.044174 -13.688591 3.930755 2.589767 175.363632 90.000000 0.000000 85.770844 74.828308 -171.226547 -89.988564 -1.274158 89.999023 2.148526 1.561991 -0.757305 181.822601 -90.000000 0.000000 
13.925813 91.456367 -10.175964 -1.438884 2.815149 12.541623 -89.999992 -90.000000 0.000000 -0.423462 2.553646 0.086451 -1.436363 8.507731 0.373624 0.000000 0.000000 0.000000 0.000000 0.000000 0.000000 90.302467 1.379334 -109.064003 -70.887215 17.517277 -4.677211 7.717093 54.491592 -9.789366 0.000000 0.000000 0.000000 -90.063110 0.932388 -77.415321 -13.408762 -4.431154 67.671692 -1.334821 -15.060312 -6.089071 0.000000 0.000000 0.000000 81.635307 67.083458 175.251328 89.715454 29.658463 90.044350 -13.440660 4.720031 3.110374 174.735901 90.000000 0.000000 85.933792 74.752411 -171.235275 -89.988548 -1.275883 89.998993 1.941427 2.197687 -1.030891 181.957626 -90.000000 0.000000 
13.708032 91.504860 -10.207939 -1.261877 2.038992 12.613905 -89.999992 -90.000000 0.000000 -0.393082 2.756826 -0.017573 -1.314855 9.187781 0.025131 0.000000 0.000000 0.000000 0.000000 0.000000 0.000000 90.302887 1.381317 -109.090942 -69.433159 10.428560 -2.565228 15.674651 70.731667 -16.843529 0.000000 0.000000 0.000000 -90.064575 0.943995 -77.258301 -13.776951 -3.242625 66.114548 -1.676224 -18.077724 -6.191980 0.000000 0.000000 0.000000 81.545517 67.061157 175.327271 89.713921 29.795460 90.044968 -13.505999 5.607535 3.758910 174.616272 90.000000 0.000000 85.999809 74.668152 -171.483078 -89.986656 -1.484977 89.998756 1.969994 2.915957 -1.295917 182.154770 -90.000000 0.000000 
13.518950 91.564850 -10.165915 -1.133677 1.364278 12.737125 -89.999992 -90.000000 0.000000 -0.393279 2.959460 -0.087680 -1.299815 9.865286 -0.205756 0.000000 0.000000 0.000000 0.000000 0.000000 0.000000 90.295372 1.363999 -108.837372 -67.052986 4.047966 0.538201 50.690048 83.675598 -51.090946 0.000000 0.000000 0.000000 -90.063568 0.943366 -77.268921 -15.115261 -2.420987 64.707237 -2.164005 -22.210844 -6.366195 0.000000 0.000000 0.000000 81.610992 66.980942 175.407104 89.713646 29.820078 90.045074 -13.577358 6.267443 4.244604 174.635727 90.000000 0.000000 86.140686 74.501236 -171.694397 -89.985893 -1.568742 89.998650 1.634816 3.515604 -1.504924 182.895096 -90.000000 0.000000 
13.294267 91.655334 -10.110890 -1.143353 1.201743 12.823767 -89.999992 -90.000000 0.000000 -0.415458 3.150894 -0.124115 -1.364584 10.504883 -0.319949 0.000000 0.000000 0.000000 0.000000 0.000000 0.000000 90.281281 1.329682 -108.338806 -63.960087 -1.023434 5.441639 143.718323 81.141899 -143.483398 0.000000 0.000000 0.000000 -90.059631 0.927314 -77.490509 -16.868521 -1.868039 63.290833 -2.772213 -27.042656 -6.624796 0.000000 0.000000 0.000000 81.870834 67.043930 175.716537 89.716301 29.585045 90.043991 -13.507277 6.378915 4.291344 174.594284 90.000000 0.000000 86.194954 74.478355 -171.674927 -89.985825 -1.575065 89.998627 1.070886 3.609923 -1.497093 183.732330 -90.000000 0.000000 
12.870185 91.745628 -10.218266 -1.074684 1.352350 12.690126 -89.999992 -90.000000 0.000000 -0.442701 3.324891 -0.136723 -1.452114 11.085747 -0.353033 0.000000 0.000000 0.000000 0.000000 0.000000 0.000000 90.262390 1.281509 -107.643547 -59.203938 -4.437978 11.897729 162.655212 71.645630 -161.901062 0.000000 0.000000 0.000000 -90.052658 0.893204 -77.957901 -17.937830 -1.017188 61.957947 -3.357478 -31.345186 -6.911558 0.000000 0.000000 0.000000 82.021225 67.481842 176.165573 89.721451 29.125372 90.041939 -13.522715 6.360272 4.149405 174.784943 90.000000 0.000000 85.757050 74.893250 -171.482925 -89.983276 -1.857984 89.998383 0.887515 3.272595 -1.300282 184.052551 -90.000000 0.000000 
12.177004 91.836823 -10.523142 -0.873054 1.578694 12.234957 -89.999992 -90.000000 0.000000 -0.452145 3.477195 -0.142892 -1.482473 11.593876 -0.368573 0.000000 0.000000 0.000000 0.000000 0.000000 0.000000 90.240555 1.222757 -106.801186 -51.905243 -5.873394 19.036070 168.292908 63.399906 -167.111313 0.000000 0.000000 0.000000 -90.043167 0.840104 -78.682434 -18.281240 -0.200363 60.705437 -3.836696 -34.624287 -7.169598 0.000000 0.000000 0.000000 82.057518 68.397102 176.619293 89.729172 28.428047 90.038925 -13.629504 6.518894 4.080449 175.267715 90.000000 0.000000 84.608910 75.791725 -171.043854 -89.977295 -2.524793 89.997871 1.193487 2.865655 -1.077009 183.849503 -90.000000 0.000000 
11.285421 91.959709 -10.841717 -0.801268 2.008567 11.521858 -89.999992 -90.000000 0.000000 -0.422330 3.602895 -0.163945 -1.378056 12.013433 -0.444459 0.000000 0.000000 0.000000 0.000000 0.000000 0.000000 90.217560 1.156986 -105.864922 -42.873085 -5.321469 26.592628 170.915115 56.760345 -169.389282 0.000000 0.000000 0.000000 -90.032471 0.770168 -79.632774 -18.767269 -0.420800 59.223412 -4.284635 -37.495117 -7.427886 0.000000 0.000000 0.000000 82.225876 69.746178 177.225739 89.739113 27.516096 90.035172 -13.571503 6.322629 3.815715 175.720474 90.000000 0.000000 82.782745 76.967583 -169.920975 -89.970299 -3.305146 89.997414 1.482604 2.818230 -1.009923 183.710831 -90.000000 0.000000 
10.261740 92.106201 -11.036992 -0.921883 2.563644 10.625799 -89.999992 -90.000000 0.000000 -0.341403 3.695969 -0.220586 -1.092666 12.324671 -0.654926 0.000000 0.000000 0.000000 0.000000 0.000000 0.000000 90.195213 1.088573 -104.897865 -34.400688 -2.945132 34.624302 172.308395 51.859203 -170.529739 0.000000 0.000000 0.000000 -90.022285 0.689297 -80.727547 -19.564079 -1.381467 57.522274 -4.810550 -40.619122 -7.752158 0.000000 0.000000 0.000000 82.537910 71.396675 178.148972 89.752083 26.308353 90.030556 -13.367271 5.851320 3.448840 176.109436 90.000000 0.000000 79.737381 78.275536 -167.455185 -89.961388 -4.297997 89.997002 1.754020 3.215693 -1.141606 183.773575 -90.000000 0.000000 
